<?xml version="1.0" encoding="UTF-8"?> <!-- Generator: Adobe Illustrator 26.3.1, SVG Export Plug-In . SVG Version: 6.00 Build 0) --> <svg xmlns="http://www.w3.org/2000/svg" xmlns:xlink="http://www.w3.org/1999/xlink" id="elle" x="0px" y="0px" viewBox="0 0 194.4 82.2" style="enable-background:new 0 0 194.4 82.2;" xml:space="preserve"> <style type="text/css"> .st0{fill:#262626;} .st1{fill-rule:evenodd;clip-rule:evenodd;fill:#262626;} .st2{display:none;fill:#FFFFFF;} .st3{display:none;fill:none;stroke:#FFFFFF;stroke-width:7.000000e-02;stroke-miterlimit:2.61;} </style> <path id="Контур_6576" class="st0" d="M78.4,41h0.8v15.1H57v-1h4.3V1h-3.7V0h13v1H67v54.2c0,0,2,0,2.8,0 C71.3,55.2,78,54.7,78.4,41L78.4,41L78.4,41z"></path> <path id="Контур_6577" class="st0" d="M136.1,41.1h0.8v15.1h-22.2v-1h4.3V1h-3.7V0h13v1h-3.6v54.3c0,0,2,0,2.8,0 C129,55.2,135.7,54.8,136.1,41.1L136.1,41.1L136.1,41.1z"></path> <path id="Контур_6578" class="st0" d="M9.6,27.9h0.5c0.4,0,5.9-0.8,5.9,10.2h0.8V16.8H16c0,11-5.5,10.2-5.9,10.2H9.6V1 c0,0,2,0,2.8,0c1.5,0,8.9-0.5,9.3,13.2h0.6V0.1H0v1h3.9v54.2H0.3v1h22.2V41h-0.8c-0.4,13.7-7.8,14.1-9.3,14.2c-0.8,0-2.8,0-2.8,0 V33.7L9.6,27.9L9.6,27.9L9.6,27.9z"></path> <path id="Контур_6579" class="st0" d="M181.4,27.9h0.5c0.4,0,5.9-0.8,5.9,10.2h0.8V16.8h-0.9c0,11-5.5,10.2-5.9,10.2h-0.5V1 c0,0,2,0,2.8,0c1.5,0,8.9-0.5,9.3,13.2h0.6V0.1h-22.2v1h3.9v54.2h-3.6v1h22.2V41.1h-0.8c-0.4,13.7-7.8,14.1-9.3,14.2 c-0.8,0-2.8,0-2.8,0V33.7L181.4,27.9L181.4,27.9L181.4,27.9z"></path> <path id="Контур_6580" class="st1" d="M6.3,79V62h1.7c2.5,0,4.7,0.3,6.6,2.1c3.5,3.3,3.7,8.9,0.4,12.4 c-0.1,0.1-0.2,0.2-0.3,0.3c-2,1.8-4.1,2.2-6.8,2.2L6.3,79L6.3,79z M3.9,81.2h4c3.4,0,5.9-0.4,8.5-2.7c2.3-2,3.6-4.9,3.5-8 c0.1-3.1-1.2-6.1-3.6-8.1c-2.5-2.2-5.1-2.6-8.3-2.6h-4V81.2z"></path> <path id="Контур_6581" class="st1" d="M24.4,81.2h11.1V79h-8.7v-8.4h8.5v-2.2h-8.5V62h8.7v-2.2H24.4V81.2z"></path> <path id="Контур_6582" class="st1" d="M57.3,61.6c-1.8-1.4-4.1-2.1-6.4-2.1c-6.1,0-11.1,5-11.1,11.1c0,6.1,5,11.1,11.1,11.1 c0,0,0,0,0,0c2.3,0,4.5-0.7,6.4-2.1v-3c-1.7,1.8-4,2.8-6.5,2.8c-4.9,0-8.9-3.9-8.9-8.8c0-4.9,3.9-8.9,8.8-8.9c2.5,0,4.8,1.1,6.5,2.8 L57.3,61.6L57.3,61.6L57.3,61.6z"></path> <path id="Контур_6583" class="st1" d="M73.3,61.7c4.9,0,8.9,3.9,8.9,8.8s-3.9,8.9-8.8,8.9c-4.9,0-8.9-3.9-8.9-8.8 c0,0,0-0.1,0-0.1C64.5,65.7,68.4,61.7,73.3,61.7C73.3,61.7,73.3,61.7,73.3,61.7L73.3,61.7L73.3,61.7z M73.3,59.5 c-6.1,0-11,5-11,11.2c0,6.1,5,11,11.2,11c6.1,0,11-5,11-11.1C84.4,64.4,79.5,59.5,73.3,59.5z"></path> <path id="Контур_6584" class="st1" d="M92.1,71.8h0.6l6.5,9.4h2.9l-6.8-9.6c3.1-0.1,5.5-2.7,5.4-5.8c0,0,0-0.1,0-0.1 c0-4.8-3.8-5.9-7.8-5.9h-3.1v21.4h2.4L92.1,71.8L92.1,71.8L92.1,71.8z M92.1,62h0.7c2.9,0,5.5,0.3,5.5,3.9c0,3.3-2.7,3.8-5.4,3.8 h-0.7L92.1,62L92.1,62L92.1,62z"></path> <path id="Контур_6585" class="st1" d="M117.9,73h-7.2l3.7-8.6L117.9,73L117.9,73z M118.8,75.2l2.5,6.1h2.6l-9.6-22.4 l-9.9,22.4h2.6l2.6-6.1L118.8,75.2z"></path> <path id="Контур_6586" class="st1" d="M131.4,62h5.2v-2.2h-12.8V62h5.2v19.2h2.4L131.4,62L131.4,62z"></path> <path id="Контур_6587" class="st1" d="M143.5,59.8h-2.4v21.4h2.4V59.8z"></path> <path id="Контур_6588" class="st1" d="M159.3,61.7c4.9,0,8.9,3.9,8.9,8.8c0,4.9-3.9,8.9-8.8,8.9c-4.9,0-8.9-3.9-8.9-8.8 c0,0,0-0.1,0-0.1C150.5,65.7,154.4,61.7,159.3,61.7C159.3,61.7,159.3,61.7,159.3,61.7C159.3,61.7,159.3,61.7,159.3,61.7z M159.3,59.5c-6.1,0-11,5-11,11.2c0,6.1,5,11,11.2,11c6.1,0,11-5,11-11.1C170.4,64.4,165.5,59.5,159.3,59.5z"></path> <path id="Контур_6589" class="st1" d="M175.3,81.2h2.4V64.7l16.7,17.5V59.8H192v16.6l-16.7-17.5V81.2z"></path> <path id="Контур_6590" class="st2" d="M192.3,54.4c0.1,0,0.3,0,0.3-0.2c0-0.1-0.1-0.2-0.2-0.2h-0.2v0.4H192.3L192.3,54.4z M192.1,55h-0.2v-1.1h0.4c0.3,0,0.4,0.1,0.4,0.3c0,0.2-0.1,0.3-0.3,0.3c0,0,0,0,0,0l0.3,0.5h-0.2l-0.3-0.5h-0.2L192.1,55L192.1,55 L192.1,55z M192.3,55.3c0.5,0,0.8-0.4,0.8-0.8c0-0.4-0.4-0.8-0.8-0.8c-0.5,0-0.8,0.4-0.8,0.8S191.9,55.3,192.3,55.3z M191.3,54.4 c0-0.6,0.4-1,1-1c0.6,0,1,0.4,1,1s-0.4,1-1,1c0,0,0,0,0,0C191.8,55.4,191.3,55,191.3,54.4C191.3,54.5,191.3,54.4,191.3,54.4z"></path> <path id="Контур_6591" class="st3" d="M191.3,54.4c0-0.6,0.4-1,1-1c0.6,0,1,0.4,1,1s-0.4,1-1,1c0,0,0,0,0,0 C191.8,55.4,191.3,55,191.3,54.4C191.3,54.4,191.3,54.4,191.3,54.4L191.3,54.4 M192.3,55.2c0.5,0,0.8-0.4,0.8-0.8 c0-0.4-0.4-0.8-0.8-0.8c-0.5,0-0.8,0.4-0.8,0.8S191.9,55.2,192.3,55.2L192.3,55.2 M192.1,55h-0.2v-1.1h0.4c0.3,0,0.4,0.1,0.4,0.3 c0,0.2-0.1,0.3-0.3,0.3c0,0,0,0,0,0l0.3,0.5h-0.2l-0.3-0.5h-0.2L192.1,55L192.1,55 M192.3,54.3c0.1,0,0.3,0,0.3-0.2 c0-0.1-0.1-0.2-0.2-0.2h-0.2v0.4H192.3"></path> </svg> 