<?xml version="1.0" encoding="UTF-8"?> <!-- Generator: Adobe Illustrator 26.3.1, SVG Export Plug-In . SVG Version: 6.00 Build 0) --> <svg xmlns="http://www.w3.org/2000/svg" xmlns:xlink="http://www.w3.org/1999/xlink" id="Layer_1" x="0px" y="0px" viewBox="0 0 263.6 60.3" style="enable-background:new 0 0 263.6 60.3;" xml:space="preserve"> <style type="text/css"> .st0{fill-rule:evenodd;clip-rule:evenodd;fill:#262626;} </style> <g id="houzz-logo_logotyp.us" transform="translate(0)"> <path id="Контур_6592" class="st0" d="M33.2,59.5h20V25.7l-40-11.5V0H0v59.5h20V40.8h13.3V59.5z"></path> <path id="Контур_6593" class="st0" d="M168.5,26v18.3c0,1,0.2,2.1,0.4,3.1c0.3,1,0.8,2,1.4,2.8c0.7,0.9,1.5,1.6,2.5,2.1 c2.5,1.1,5.2,1.1,7.7,0c1-0.5,1.8-1.2,2.5-2.1c0.6-0.9,1.1-1.8,1.4-2.8c0.3-1,0.4-2.1,0.4-3.1V26.1h7.4V45c0,4.9-1.6,11.3-9.4,14.2 c-3.9,1.4-8.3,1.5-12.2,0c-6.3-2.4-9.4-7.1-9.4-14.2V26H168.5L168.5,26z M148,30.4c1.6,1.6,2.9,3.5,3.8,5.6 c0.9,2.2,1.4,4.5,1.4,6.8c0,4.7-1.8,9.1-5.1,12.4c-1.6,1.6-3.5,2.9-5.6,3.7c-4.5,1.8-9.5,1.8-13.9,0c-2.1-0.9-4-2.1-5.6-3.7 c-3.3-3.3-5.2-7.8-5.1-12.4c0-2.3,0.5-4.7,1.4-6.8c3.9-9,14.4-13.2,23.4-9.3C144.5,27.5,146.4,28.8,148,30.4L148,30.4z M227.6,26.1 v6.3L210,52.9h18.6v6.6h-28v-6.4l17.5-20.5h-16.9v-6.6L227.6,26.1L227.6,26.1z M262.6,26.1v6.3L245,52.9h18.6v6.6h-28v-6.4 l17.5-20.5h-16.9v-6.6L262.6,26.1L262.6,26.1z M87.1,14.2v14.1c4.3-3.2,9.9-4,14.9-2c5.1,2.1,8.1,6.8,8.1,12.9v20.2h-7.4V41.7 c0-4.2-2.1-9.1-8.1-9.1c-6.5,0-7.5,5.7-7.5,9.1v17.8h-7.4V14.2H87.1z M144.6,47.1c0.9-2.8,0.9-5.8,0-8.6c-0.4-1.2-1.1-2.4-2-3.3 c-0.9-0.9-1.9-1.7-3.1-2.2c-2.7-1.1-5.6-1.1-8.3,0c-1.2,0.5-2.2,1.2-3.1,2.2c-0.9,1-1.5,2.1-2,3.3c-0.9,2.8-0.9,5.8,0,8.6 c0.4,1.2,1.1,2.4,2,3.3c0.9,0.9,1.9,1.7,3.1,2.2c2.7,1.1,5.6,1.1,8.3,0c1.2-0.5,2.2-1.2,3.1-2.2C143.5,49.4,144.2,48.3,144.6,47.1 L144.6,47.1z"></path> </g> </svg> 