<?xml version="1.0" encoding="UTF-8"?> <!-- Generator: Adobe Illustrator 26.3.1, SVG Export Plug-In . SVG Version: 6.00 Build 0) --> <svg xmlns="http://www.w3.org/2000/svg" xmlns:xlink="http://www.w3.org/1999/xlink" id="Layer_1" x="0px" y="0px" viewBox="0 0 293.6 48.2" style="enable-background:new 0 0 293.6 48.2;" xml:space="preserve"> <style type="text/css"> .st0{fill:#262626;} </style> <path id="inmyroom" class="st0" d="M45.9,0l0.2,0c2.2,0.7,5.6,13,4.2,25.3c-0.5,4.1-1.8,8.1-3.8,11.8c0,0,0,0.1-0.1,0.1l-0.2,0.4 l0,0c-0.6,1.1-1.3,2-2.1,2.9l0,0c-3.1,3.6-7.4,6.1-12,7c-0.4,0.1-0.8,0.2-1.2,0.3c-0.3,0.1-0.6,0.1-0.9,0.2 c-1.3,0.2-2.7,0.3-4.1,0.3l-0.3,0l-0.3,0c-20,0-24.2-16.4-25-22.9C-1.1,13,2.3,0.7,4.5,0c1.9-0.6,10,4.7,13.7,9.2 c2.2-0.9,4.7-1.5,7.1-1.5c2.4,0,4.8,0.6,7.1,1.5C37.5,3.7,44.1,0.2,45.9,0L45.9,0z M76.4,10.4c0.4,0,0.7,0.3,0.7,0.7v0v25.6 c0,0.4-0.3,0.7-0.7,0.7l0,0h-3.7c-0.4,0-0.7-0.3-0.7-0.7v0V11.1c0-0.4,0.3-0.7,0.7-0.7l0,0L76.4,10.4z M87.7,10.4 c0.2,0,0.4,0.1,0.5,0.2l14.2,17.6V11.1c0-0.4,0.3-0.7,0.7-0.7l0,0h3.7c0.4,0,0.7,0.3,0.7,0.7v0v25.6c0,0.4-0.3,0.7-0.7,0.7l0,0h-3 c-0.2,0-0.4-0.1-0.5-0.2L89.1,19.5v17.2c0,0.4-0.3,0.7-0.7,0.7c0,0,0,0,0,0h-3.7c-0.4,0-0.7-0.3-0.7-0.7v0V11.1 c0-0.4,0.3-0.7,0.7-0.7l0,0L87.7,10.4z M118.1,10.4c0.2,0,0.5,0.1,0.6,0.3l10.1,17l9.9-17c0.1-0.2,0.3-0.3,0.6-0.3h3 c0.4,0,0.7,0.3,0.7,0.7l0,25.6c0,0.4-0.3,0.7-0.7,0.7l0,0h-3.5c-0.4,0-0.7-0.3-0.7-0.7l0-16.2l-8,13.5c-0.1,0.2-0.3,0.3-0.6,0.3 h-1.7c-0.2,0-0.4-0.1-0.6-0.3l-8-13.4v16.1c0,0.4-0.3,0.7-0.7,0.7c0,0,0,0,0,0h-3.5c-0.4,0-0.7-0.3-0.7-0.7c0,0,0,0,0,0V11.1 c0-0.4,0.3-0.7,0.7-0.7l0,0L118.1,10.4z M151.2,10.4c0.2,0,0.4,0.1,0.6,0.3l7.6,12.5l7.7-12.5c0.1-0.2,0.3-0.3,0.6-0.3h3.6 c0.4,0,0.7,0.3,0.7,0.7c0,0.1,0,0.2-0.1,0.3L161.7,28v8.7c0,0.4-0.3,0.7-0.7,0.7c0,0,0,0,0,0h-3.6c-0.4,0-0.7-0.3-0.7-0.7v0v-8.7 l-10.1-16.5c-0.2-0.3-0.1-0.7,0.2-0.9c0.1-0.1,0.2-0.1,0.3-0.1L151.2,10.4L151.2,10.4z M185.8,10.4c7,0,11.3,3.6,11.3,9.6 c0,4-1.8,6.6-5.3,8.4l5.6,7.9c0.2,0.3,0.1,0.7-0.2,0.9c-0.1,0.1-0.2,0.1-0.4,0.1h-4c-0.2,0-0.4-0.1-0.5-0.3l-5.3-7.5 c-0.4,0-0.9,0-1.3,0h-5.7v7.1c0,0.4-0.3,0.7-0.7,0.7c0,0,0,0,0,0h-3.7c-0.4,0-0.7-0.3-0.7-0.7c0,0,0,0,0,0V11.1 c0-0.4,0.3-0.7,0.7-0.7c0,0,0,0,0,0L185.8,10.4L185.8,10.4z M185.7,14.9h-5.5v10.2h5.5c4.3,0,6.5-1.8,6.5-5.1S190,14.9,185.7,14.9 L185.7,14.9z M214.6,10.1c8.1,0,14.2,5.9,14.2,13.7s-6.1,13.7-14.2,13.7c-8.2,0-14.3-5.9-14.3-13.7S206.4,10.1,214.6,10.1 L214.6,10.1z M214.6,14.7c-4.9-0.2-9.1,3.7-9.3,8.6c0,0.2,0,0.4,0,0.6c0.1,5.1,4.3,9.2,9.4,9.1c5-0.1,9.1-4.1,9.1-9.1 c0.1-4.9-3.8-9-8.7-9.2C214.9,14.7,214.7,14.7,214.6,14.7z M245.9,10.1c8.1,0,14.2,5.9,14.2,13.7s-6.1,13.7-14.2,13.7 c-8.2,0-14.3-5.9-14.3-13.7S237.7,10.1,245.9,10.1L245.9,10.1z M245.9,14.7c-4.9-0.2-9.1,3.7-9.3,8.6c0,0.2,0,0.4,0,0.6 c0.1,5.1,4.3,9.2,9.4,9.1c5-0.1,9.1-4.1,9.1-9.1c0.1-4.9-3.8-9-8.7-9.2C246.3,14.7,246.1,14.7,245.9,14.7L245.9,14.7z M268.7,10.4 c0.2,0,0.5,0.1,0.6,0.3l10.1,17l10-17c0.1-0.2,0.3-0.3,0.6-0.3h3c0.4,0,0.7,0.3,0.7,0.7c0,0,0,0,0,0l0,25.6c0,0.4-0.3,0.7-0.7,0.7 h-3.5c-0.4,0-0.7-0.3-0.7-0.7l0-16.2l-8,13.5c-0.1,0.2-0.3,0.3-0.6,0.3h-1.7c-0.2,0-0.4-0.1-0.6-0.3l-8-13.3v16.1 c0,0.4-0.3,0.7-0.7,0.7l0,0h-3.5c-0.4,0-0.7-0.3-0.7-0.7V11.1c0-0.4,0.3-0.7,0.7-0.7L268.7,10.4z"></path> </svg> 