<?xml version="1.0" encoding="UTF-8"?> <svg xmlns="http://www.w3.org/2000/svg" width="21.098" height="21.098" viewBox="0 0 21.098 21.098"> <path id="inst" d="M100.642,844.231a6.292,6.292,0,0,1-6.286-6.285v-8.528a6.293,6.293,0,0,1,6.286-6.285h8.528a6.292,6.292,0,0,1,6.285,6.285v8.528a6.292,6.292,0,0,1-6.285,6.285Zm-4.163-14.813v8.528a4.163,4.163,0,0,0,4.163,4.162h8.528a4.163,4.163,0,0,0,4.162-4.162v-8.528a4.163,4.163,0,0,0-4.162-4.163h-8.528A4.163,4.163,0,0,0,96.478,829.418Zm2.97,4.264a5.457,5.457,0,1,1,5.457,5.457A5.463,5.463,0,0,1,99.448,833.682Zm2.122,0a3.334,3.334,0,1,0,3.334-3.334A3.335,3.335,0,0,0,101.57,833.682Zm7.49-5.412a1.31,1.31,0,1,1,1.31,1.31A1.31,1.31,0,0,1,109.06,828.27Z" transform="translate(-94.356 -823.133)" fill="#262626"></path> </svg> 