<?xml version="1.0" encoding="UTF-8"?> <svg xmlns="http://www.w3.org/2000/svg" id="logo" width="200" height="154.536" viewBox="0 0 200 154.536"> <path id="Контур_6568" data-name="Контур 6568" d="M53.261,31.736a8.384,8.384,0,0,0-1.028,2.771,19.07,19.07,0,0,0-.3,3.747v15.91H43.9V37.12a20.957,20.957,0,0,0-.462-3.978,7.218,7.218,0,0,0-1.165-2.687,5.613,5.613,0,0,0-1.763-1.312,5.478,5.478,0,0,0-2.351-.493A6.4,6.4,0,0,0,35,29.428a6.02,6.02,0,0,0-2.277,2.309,9.279,9.279,0,0,0-1.06,2.76,15.035,15.035,0,0,0-.273,3.757v15.91H23.361V23.015H31.39v4.649l.945-1.217a11.178,11.178,0,0,1,4.051-3.306,12.678,12.678,0,0,1,5.121-1.175A12.132,12.132,0,0,1,47.426,23.5a9.906,9.906,0,0,1,3.82,4.062l.43.829.483-.8a12.25,12.25,0,0,1,4.062-4.1,10.975,10.975,0,0,1,5.825-1.522,11.54,11.54,0,0,1,4.66.924,9.767,9.767,0,0,1,3.61,2.8,10.978,10.978,0,0,1,1.6,3.264,20.732,20.732,0,0,1,.535,5.5V54.164H64.417V37.141a16.061,16.061,0,0,0-.43-4,7.716,7.716,0,0,0-1.2-2.676,5.265,5.265,0,0,0-1.774-1.28,6.789,6.789,0,0,0-2.33-.525,6.4,6.4,0,0,0-3.159.777,6.02,6.02,0,0,0-2.277,2.309Zm50.386,22.427V48.832l-.955,1.4A10.854,10.854,0,0,1,93.236,55.2a15,15,0,0,1-11.481-4.775,16.927,16.927,0,0,1-4.439-11.88,16.99,16.99,0,0,1,4.324-11.807,14.354,14.354,0,0,1,11.135-4.775,12.52,12.52,0,0,1,5.783,1.28,11.006,11.006,0,0,1,4.114,3.694l.955,1.417V23h8.029V54.164h-8.029Zm.892-15.616a9.529,9.529,0,0,0-2.676-6.8,9.641,9.641,0,0,0-13.591,0,9.539,9.539,0,0,0-2.634,6.79,9.826,9.826,0,0,0,2.634,6.906,9.038,9.038,0,0,0,6.811,2.76,8.914,8.914,0,0,0,6.738-2.76,9.935,9.935,0,0,0,2.708-6.906Zm10.663,29.3a6.4,6.4,0,0,1,3.159-.777,6.789,6.789,0,0,1,2.33.525,5.265,5.265,0,0,1,1.774,1.28,7.443,7.443,0,0,1,1.2,2.676,16.12,16.12,0,0,1,.43,4V92.575h8.029V72.866a20.73,20.73,0,0,0-.535-5.5,11.236,11.236,0,0,0-1.6-3.264,9.852,9.852,0,0,0-3.61-2.8,11.576,11.576,0,0,0-4.66-.924,10.975,10.975,0,0,0-5.825,1.522,12.25,12.25,0,0,0-4.062,4.1l-.483.8-.43-.829a9.776,9.776,0,0,0-3.82-4.061,12.132,12.132,0,0,0-5.919-1.532,12.853,12.853,0,0,0-5.121,1.175,11.178,11.178,0,0,0-4.051,3.306l-.945,1.217V61.426H83.035V92.575h8.029V76.665a15.034,15.034,0,0,1,.273-3.757,9.288,9.288,0,0,1,1.07-2.76,6.093,6.093,0,0,1,2.277-2.309,6.4,6.4,0,0,1,3.159-.777,5.478,5.478,0,0,1,2.351.493,5.613,5.613,0,0,1,1.763,1.312,7.141,7.141,0,0,1,1.165,2.687,20.945,20.945,0,0,1,.462,3.967V92.564h8.029V76.654a19.914,19.914,0,0,1,.3-3.747,8.875,8.875,0,0,1,1.029-2.771,6.094,6.094,0,0,1,2.277-2.309Zm47.374-6.412L153.235,79.6l-9.96-18.125h-9.047l14.64,26.636-.126.252-15.06,29.3h9.068l28.9-56.221h-9.068Zm-79.54,69.728v-5.331l-.955,1.4A11.294,11.294,0,0,1,78,130.965a11.453,11.453,0,0,1-5.373,1.238,15,15,0,0,1-11.481-4.775,18.2,18.2,0,0,1-.115-23.687,14.354,14.354,0,0,1,11.135-4.775,12.52,12.52,0,0,1,5.783,1.28,11.006,11.006,0,0,1,4.114,3.694l.955,1.417v-5.352h8.029v31.159H83.014Zm.892-15.616a9.529,9.529,0,0,0-2.676-6.8,9.641,9.641,0,0,0-13.591,0,9.539,9.539,0,0,0-2.634,6.79,9.826,9.826,0,0,0,2.634,6.906,9.038,9.038,0,0,0,6.811,2.76,8.913,8.913,0,0,0,6.738-2.76,9.935,9.935,0,0,0,2.708-6.906ZM43.606,76.507v54.657h8.029V76.507Zm133.83-36.5H152.28l.094.609c.787,4.859,4.313,8.385,8.375,8.385a8.154,8.154,0,0,0,6.927-4.324L175.746,46A16.6,16.6,0,1,1,177.5,38.59c0,.43-.021.892-.073,1.427Zm-8.69-5.174-.283-.714c-1.406-3.621-4.439-5.951-7.714-5.951s-6.3,2.34-7.714,5.951l-.283.714h15.973ZM0,154.536H199.969V93.687h-8.207v52.642h-80.1V117.658H128.94v-8.029H111.665V99.921h-8.029v9.708H96.028v8.029h7.609v28.672H8.207V8.207H117.038V54.164h8.029v-11.5h2.739l6.454,11.513h9.078l-8.6-15.816,8.585-15.322h-9.361l-6.234,11.471h-2.655V8.207h66.705V59.086l-1.48,2.9L174.571,92.638h9.068L200,60.755V0H0Zm38.5-43.522H31.243V90.34a21.387,21.387,0,0,1,.231-3.631,6.05,6.05,0,0,1,.819-2.235,3.851,3.851,0,0,1,1.5-1.406,6.364,6.364,0,0,1,4.544-.1l.157.063V76.192c-.378-.115-.724-.22-1.049-.294a11.2,11.2,0,0,0-2.561-.283,12.877,12.877,0,0,0-4.292.682,10.507,10.507,0,0,0-3.327,1.879,10.374,10.374,0,0,0-3.117,4.366,17.827,17.827,0,0,0-.934,6.612v21.882H19.793v6.685h3.421v13.465h8.029V117.721H38.5v-6.685Z" fill="#fff"></path> </svg> 