<?xml version="1.0" encoding="UTF-8"?> <svg xmlns="http://www.w3.org/2000/svg" width="18.361" height="23.6" viewBox="0 0 18.361 23.6"> <path id="pint" d="M103.21,983.585c-.621,3.25-1.377,6.365-3.621,7.992-.692-4.911,1.016-8.6,1.81-12.514-1.354-2.277.163-6.858,3.015-5.729,3.511,1.388-3.04,8.463,1.357,9.348,4.592.922,6.466-7.965,3.618-10.855-4.113-4.175-11.974-.1-11.006,5.879.235,1.461,1.744,1.9.6,3.92-2.633-.583-3.419-2.66-3.317-5.428.163-4.531,4.07-7.7,7.991-8.142,4.958-.556,9.611,1.821,10.254,6.483.723,5.264-2.238,10.966-7.54,10.555C104.938,984.982,104.336,984.27,103.21,983.585Z" transform="translate(-95.662 -967.977)" fill="#262626"></path> </svg> 