<?xml version="1.0" encoding="UTF-8"?> <svg xmlns="http://www.w3.org/2000/svg" width="37.406" height="38.276" viewBox="0 0 37.406 38.276"> <g id="Векторный_смарт-объект_копия_10" data-name="Векторный смарт-объект копия 10" transform="translate(-14.594 -2.724)"> <g id="Векторный_смарт-объект_копия_10-2" data-name="Векторный смарт-объект копия 10" transform="translate(0 0)"> <path id="Контур_1" data-name="Контур 1" d="M45.112,704.9a14.483,14.483,0,1,0,14.151,14.479A14.334,14.334,0,0,0,45.112,704.9m0,33.617a19.143,19.143,0,0,1,0-38.276,19.143,19.143,0,0,1,0,38.276" transform="translate(-11.815 -697.521)" fill="#262626"></path> <path id="Контур_2" data-name="Контур 2" d="M64.886,720.618l-.021.483c-.009.167-.021.333-.035.5-.029.333-.068.666-.118,1a15.471,15.471,0,0,1-.426,1.968,15.059,15.059,0,0,1-1.6,3.669,16.189,16.189,0,0,1-5.482,5.421,17.171,17.171,0,0,1-3.436,1.594,15.227,15.227,0,0,1-3.734.764c-.162.011-.323.02-.486.026l-.244.006h-.23c-.136,0-.316,0-.461,0s-.306-.008-.459-.015c-.611-.027-1.226-.081-1.84-.168a15.688,15.688,0,0,1-3.637-.952,12.939,12.939,0,0,1-3.333-1.939,12.1,12.1,0,0,1-2.6-2.912,13.027,13.027,0,0,1-1.564-3.543,15.321,15.321,0,0,1-.539-3.759,17.639,17.639,0,0,1,.06-1.87c.027-.309.06-.618.1-.924.021-.154.043-.3.068-.459s.058-.332.092-.492a11.044,11.044,0,0,1,1.469-3.59,11.836,11.836,0,0,1,2.512-2.833,11.682,11.682,0,0,1,3.226-1.877,9.893,9.893,0,0,1,3.685-.669,8.554,8.554,0,0,1,.948.07c.131.017.295.041.446.064s.3.051.449.08a12.3,12.3,0,0,1,1.761.484,10.459,10.459,0,0,1,3.208,1.825A9.3,9.3,0,0,1,55,715.493a9.62,9.62,0,0,1,.988,3.6,9.929,9.929,0,0,1-.027,1.868,7.842,7.842,0,0,1-.439,1.837,7.578,7.578,0,0,1-2.1,3.056,7.9,7.9,0,0,1-3.185,1.712,6.807,6.807,0,0,1-1.8.237,7.4,7.4,0,0,1-1.782-.224,6.013,6.013,0,0,1-3.073-1.865,6.251,6.251,0,0,1-1.477-3.285,5.577,5.577,0,0,1,.053-1.823,5.042,5.042,0,0,1,.671-1.687,3.809,3.809,0,0,1,2.994-1.765,4.179,4.179,0,0,1,1.726.27,2.746,2.746,0,0,1,1.371,1.109,2.909,2.909,0,0,1,.369,1.726,2.629,2.629,0,0,1-.18.867,1.843,1.843,0,0,1-.534.7,1.885,1.885,0,0,1-1.625.383,1.154,1.154,0,0,1-.687-.489,1.391,1.391,0,0,1-.19-.827,1.386,1.386,0,0,0,.219.807,1.1,1.1,0,0,0,.676.439,1.781,1.781,0,0,0,1.517-.424,1.68,1.68,0,0,0,.461-.658,2.4,2.4,0,0,0,.131-.808,2.65,2.65,0,0,0-.395-1.556,2.416,2.416,0,0,0-1.253-.926,3.807,3.807,0,0,0-1.572-.177,3.408,3.408,0,0,0-1.472.514,3.313,3.313,0,0,0-1.073,1.126,4.4,4.4,0,0,0-.523,1.5,4.892,4.892,0,0,0,.021,1.591,5.444,5.444,0,0,0,1.4,2.8,5.078,5.078,0,0,0,2.671,1.467,6.4,6.4,0,0,0,1.545.126,5.772,5.772,0,0,0,1.506-.267,6.711,6.711,0,0,0,2.637-1.566,6.214,6.214,0,0,0,1.615-2.571,6.369,6.369,0,0,0,.291-1.5,8.233,8.233,0,0,0-.043-1.557,7.933,7.933,0,0,0-.934-2.926,7.443,7.443,0,0,0-1.969-2.276,8.536,8.536,0,0,0-2.683-1.374,10.322,10.322,0,0,0-1.489-.339c-.128-.019-.254-.036-.38-.051s-.239-.026-.386-.038a6.234,6.234,0,0,0-.725-.021,7.758,7.758,0,0,0-2.853.653,9.446,9.446,0,0,0-4.395,3.922,8.33,8.33,0,0,0-1,2.75c-.02.12-.037.24-.051.353s-.03.261-.042.39c-.025.262-.043.523-.055.784a14.7,14.7,0,0,0,.014,1.557,10.964,10.964,0,0,0,1.849,5.624,8.8,8.8,0,0,0,1.991,2.045,9.626,9.626,0,0,0,2.536,1.327,12.321,12.321,0,0,0,2.873.614c.5.047,1,.071,1.5.07.126,0,.253,0,.38,0L49,732.3l.189-.009.174-.012c.117-.009.233-.02.351-.034a12.609,12.609,0,0,0,5.4-2.056A12.052,12.052,0,0,0,59.019,726a10.581,10.581,0,0,0,1.014-2.624,10.943,10.943,0,0,0,.239-1.392c.025-.235.042-.471.053-.709.006-.119.01-.239.01-.357v-.376Z" transform="translate(-12.886 -698.795)" fill="#262626"></path> <path id="Контур_3" data-name="Контур 3" d="M63.345,720.72a14.209,14.209,0,0,1-.5,3.526,13.355,13.355,0,0,1-1.389,3.268,14.623,14.623,0,0,1-4.9,4.934,15.856,15.856,0,0,1-3.117,1.5,13.815,13.815,0,0,1-3.372.738,15.474,15.474,0,0,1-1.721.034,17.049,17.049,0,0,1-1.709-.132,14.332,14.332,0,0,1-3.34-.822,11.641,11.641,0,0,1-3.022-1.7,10.831,10.831,0,0,1-2.36-2.576,11.855,11.855,0,0,1-1.455-3.189,14.141,14.141,0,0,1-.541-3.457,16.247,16.247,0,0,1,.033-1.747q.031-.435.085-.869c.019-.144.037-.288.058-.432s.048-.293.077-.437a9.949,9.949,0,0,1,1.285-3.256,10.886,10.886,0,0,1,5.209-4.389,9.013,9.013,0,0,1,3.352-.668,7.284,7.284,0,0,1,.859.049c.278.03.566.07.844.12a11.379,11.379,0,0,1,1.654.424,9.683,9.683,0,0,1,3.005,1.642,8.569,8.569,0,0,1,2.189,2.671,8.959,8.959,0,0,1,.973,3.337,9.2,9.2,0,0,1,0,1.748,7.348,7.348,0,0,1-.378,1.71,7.074,7.074,0,0,1-1.91,2.877,7.459,7.459,0,0,1-2.978,1.666,6.475,6.475,0,0,1-1.692.253,7.083,7.083,0,0,1-1.7-.183,5.68,5.68,0,0,1-2.937-1.716,5.978,5.978,0,0,1-1.462-3.117,5.274,5.274,0,0,1,.022-1.748,4.84,4.84,0,0,1,.616-1.633,3.678,3.678,0,0,1,1.224-1.227,3.749,3.749,0,0,1,1.634-.53,4.115,4.115,0,0,1,1.7.231,2.693,2.693,0,0,1,1.369,1.064,2.908,2.908,0,0,1,.4,1.71,2.636,2.636,0,0,1-.165.878,1.873,1.873,0,0,1-.531.723,1.944,1.944,0,0,1-1.67.426,1.242,1.242,0,0,1-.749-.512,1.51,1.51,0,0,1-.225-.885l.228.007a1.286,1.286,0,0,0,.186.748,1.02,1.02,0,0,0,.615.416,1.727,1.727,0,0,0,1.471-.38,1.66,1.66,0,0,0,.465-.635,2.407,2.407,0,0,0,.147-.8,2.668,2.668,0,0,0-.365-1.572,2.457,2.457,0,0,0-1.255-.971,3.894,3.894,0,0,0-1.6-.217,3.539,3.539,0,0,0-1.534.5,3.458,3.458,0,0,0-1.147,1.151,4.577,4.577,0,0,0-.577,1.552,5.067,5.067,0,0,0-.01,1.665,5.711,5.711,0,0,0,1.412,2.969,5.405,5.405,0,0,0,2.806,1.617,6.718,6.718,0,0,0,1.63.167,6.2,6.2,0,0,0,1.614-.251,7.173,7.173,0,0,0,2.845-1.612,6.733,6.733,0,0,0,1.8-2.75,6.908,6.908,0,0,0,.351-1.628,8.718,8.718,0,0,0-.013-1.676,8.573,8.573,0,0,0-.948-3.189,8.163,8.163,0,0,0-2.1-2.535,9.29,9.29,0,0,0-2.887-1.557,11.128,11.128,0,0,0-1.6-.4c-.273-.047-.539-.082-.817-.111a7.022,7.022,0,0,0-.813-.042,8.6,8.6,0,0,0-3.186.655,10.4,10.4,0,0,0-4.924,4.242,9.37,9.37,0,0,0-1.179,3.084c-.025.136-.048.272-.067.408s-.036.278-.052.417c-.031.279-.055.558-.073.839a15.565,15.565,0,0,0-.013,1.68,13.462,13.462,0,0,0,.552,3.292,11.137,11.137,0,0,0,1.4,2.987,10.081,10.081,0,0,0,2.231,2.382,10.87,10.87,0,0,0,2.847,1.562,13.591,13.591,0,0,0,3.171.741c.542.063,1.087.1,1.634.107A15.028,15.028,0,0,0,50,733.831a12.923,12.923,0,0,0,3.159-.731,14.706,14.706,0,0,0,2.924-1.447,13.669,13.669,0,0,0,4.495-4.675,12.294,12.294,0,0,0,1.226-3.024,13.013,13.013,0,0,0,.4-3.253Z" transform="translate(-13.052 -698.925)" fill="#262626"></path> <path id="Контур_4" data-name="Контур 4" d="M64.74,720.578l-.026.479c-.013.165-.026.33-.043.5-.033.33-.077.659-.13.988a15.323,15.323,0,0,1-.449,1.945,14.974,14.974,0,0,1-1.622,3.61A15.63,15.63,0,0,1,60.03,731.1a16.513,16.513,0,0,1-3.012,2.286,17.022,17.022,0,0,1-3.39,1.545,14.906,14.906,0,0,1-3.668.726c-.158.011-.317.019-.476.024l-.239.006h-.227l-.223,0-.229-.006c-.151,0-.3-.009-.451-.016-.6-.028-1.2-.084-1.807-.172a15.379,15.379,0,0,1-3.559-.944,12.635,12.635,0,0,1-3.243-1.9,11.816,11.816,0,0,1-2.526-2.834,12.728,12.728,0,0,1-1.518-3.452,14.949,14.949,0,0,1-.523-3.67,17.8,17.8,0,0,1,.06-1.831c.025-.3.057-.605.1-.9.021-.151.042-.3.066-.45s.056-.321.089-.476a10.681,10.681,0,0,1,1.42-3.487,11.554,11.554,0,0,1,5.578-4.6,9.636,9.636,0,0,1,3.58-.668c.154,0,.308.008.462.019s.314.026.454.043c.3.037.588.081.881.137a11.868,11.868,0,0,1,1.726.465,10.17,10.17,0,0,1,3.142,1.766,9.146,9.146,0,0,1,2.287,2.848,9.455,9.455,0,0,1,1,3.518c.026.3.037.607.037.911l0,.226c0,.081-.005.158-.009.234-.009.154-.021.308-.038.462a7.767,7.767,0,0,1-.416,1.808,7.5,7.5,0,0,1-2.042,3.024,7.818,7.818,0,0,1-3.134,1.73,6.791,6.791,0,0,1-1.785.257,7.426,7.426,0,0,1-1.777-.2,6.21,6.21,0,0,1-1.682-.675,5.95,5.95,0,0,1-1.418-1.157,6.307,6.307,0,0,1-1.536-3.3,5.674,5.674,0,0,1,.029-1.859,5.22,5.22,0,0,1,.664-1.744,4,4,0,0,1,3.1-1.9,4.5,4.5,0,0,1,.924.03,4.143,4.143,0,0,1,.9.223,3.323,3.323,0,0,1,.844.46,2.749,2.749,0,0,1,.677.732,2.9,2.9,0,0,1,.377.93,3.7,3.7,0,0,1,.074.966c0,.08-.01.159-.018.236,0,.039-.008.079-.013.117l-.008.058-.009.066a2.324,2.324,0,0,1-.055.254,2.017,2.017,0,0,1-.087.253,2.2,2.2,0,0,1-.621.848,2.358,2.358,0,0,1-.9.475,2.1,2.1,0,0,1-1.042.022,1.648,1.648,0,0,1-.52-.226,1.493,1.493,0,0,1-.423-.421,1.685,1.685,0,0,1-.232-.54,2.226,2.226,0,0,1-.053-.545.432.432,0,0,1,.432-.452c.251.006.552.218.412.474h0v0a.97.97,0,0,0,.154.54.709.709,0,0,0,.426.277,1.411,1.411,0,0,0,1.183-.306,1.309,1.309,0,0,0,.374-.5,1.183,1.183,0,0,0,.052-.148,1.071,1.071,0,0,0,.035-.162s.005-.028,0-.015l0-.024.005-.048c.005-.031.008-.063.011-.094.007-.063.011-.126.014-.189a2.307,2.307,0,0,0-.31-1.364A2.1,2.1,0,0,0,47.3,718a3.279,3.279,0,0,0-.714-.172,3.627,3.627,0,0,0-.739-.02,3.181,3.181,0,0,0-1.379.452,3.091,3.091,0,0,0-1.023,1.034,4.191,4.191,0,0,0-.522,1.421,4.69,4.69,0,0,0,0,1.534A5.313,5.313,0,0,0,44.238,725a4.967,4.967,0,0,0,2.608,1.481,6.382,6.382,0,0,0,1.529.145,5.682,5.682,0,0,0,1.5-.245,6.715,6.715,0,0,0,2.653-1.528,6.235,6.235,0,0,0,1.649-2.566,6.524,6.524,0,0,0,.309-1.511c.011-.128.018-.258.022-.388l0-.191,0-.2q-.008-.4-.052-.79a7.988,7.988,0,0,0-.914-2.967,7.5,7.5,0,0,0-1.98-2.327,8.643,8.643,0,0,0-2.713-1.412,10.221,10.221,0,0,0-1.505-.354c-.254-.041-.515-.072-.769-.095-.136-.012-.25-.019-.376-.025s-.246,0-.371,0a7.918,7.918,0,0,0-2.918.646,9.63,9.63,0,0,0-4.493,3.982,8.542,8.542,0,0,0-1.029,2.814c-.021.124-.04.246-.054.363s-.031.264-.043.4c-.026.263-.045.528-.058.791a14.212,14.212,0,0,0,.013,1.576,11.175,11.175,0,0,0,1.885,5.726,8.983,8.983,0,0,0,2.037,2.092,9.746,9.746,0,0,0,2.589,1.342,12.419,12.419,0,0,0,2.912.612c.5.046,1.007.068,1.516.065.126,0,.254,0,.382-.006l.188-.007.192-.009.189-.01.178-.014c.118-.011.236-.024.355-.038a11.66,11.66,0,0,0,2.823-.734,13.368,13.368,0,0,0,2.614-1.379,12.052,12.052,0,0,0,3.881-4.254,10.564,10.564,0,0,0,.976-2.644,11.017,11.017,0,0,0,.212-1.394q.031-.353.04-.708c0-.118,0-.236,0-.356l-.007-.372v-.017a2.264,2.264,0,1,1,4.527-.087c0,.057,0,.12,0,.178" transform="translate(-12.925 -698.826)" fill="#262626"></path> <path id="Контур_5" data-name="Контур 5" d="M45.05,704.93a14.394,14.394,0,1,0,14.064,14.39A14.245,14.245,0,0,0,45.05,704.93m0,33.41a19.025,19.025,0,0,1,0-38.04,19.025,19.025,0,0,1,0,38.04" transform="translate(-11.822 -697.529)" fill="#262626"></path> </g> </g> </svg> 